<svg xmlns="http://www.w3.org/2000/svg" version="1.1" xmlns:xlink="http://www.w3.org/1999/xlink" xmlns:svgjs="http://svgjs.com/svgjs" width="512" height="512" x="0" y="0" viewBox="0 0 512 512" style="enable-background:new 0 0 512 512" xml:space="preserve"><defs><linearGradient xmlns="http://www.w3.org/2000/svg" id="SVGID_1_" gradientUnits="userSpaceOnUse" x1=".003" x2="511.997" y1="256" y2="256"><stop stop-opacity="1" stop-color="#ff0002" offset="0"></stop><stop stop-opacity="1" stop-color="#205375" offset="0.8166023166023166"></stop></linearGradient></defs><g><linearGradient xmlns="http://www.w3.org/2000/svg" id="SVGID_1_" gradientUnits="userSpaceOnUse" x1=".003" x2="511.997" y1="256" y2="256"><stop stop-opacity="1" stop-color="#ff0002" offset="0"></stop><stop stop-opacity="1" stop-color="#205375" offset="0.8166023166023166"></stop></linearGradient><path xmlns="http://www.w3.org/2000/svg" d="m256 0c-141.2 0-256 114.8-256 256s114.8 256 256 256 256-114.8 256-256-114.8-256-256-256zm0 480c-123.5 0-224-100.5-224-224s100.5-224 224-224 224 100.5 224 224-100.5 224-224 224zm90.9-292.2-68.3 68.2 68.2 68.2c6.2 6.2 6.2 16.4 0 22.6-3.1 3.1-7.2 4.7-11.3 4.7s-8.2-1.6-11.3-4.7l-68.2-68.2-68.2 68.2c-3.1 3.1-7.2 4.7-11.3 4.7s-8.2-1.6-11.3-4.7c-6.2-6.2-6.2-16.4 0-22.6l68.2-68.2-68.2-68.2c-6.2-6.2-6.2-16.4 0-22.6s16.4-6.2 22.6 0l68.2 68.2 68.2-68.2c6.2-6.2 16.4-6.2 22.6 0 6.3 6.2 6.3 16.3.1 22.6z" fill="url(&quot;#SVGID_1_&quot;)" data-original="url(#SVGID_1_)"></path></g></svg>