<svg xmlns="http://www.w3.org/2000/svg" version="1.1" xmlns:xlink="http://www.w3.org/1999/xlink" xmlns:svgjs="http://svgjs.com/svgjs" width="512" height="512" x="0" y="0" viewBox="0 0 16 16" style="enable-background:new 0 0 512 512" xml:space="preserve"><g><g xmlns="http://www.w3.org/2000/svg" id="_38" data-name="38"><path d="m11.5 1h-8a2.5 2.5 0 0 0 -2.5 2.5v11a.5.5 0 0 0 .8.4l3.7-2.77 3.7 2.77a.5.5 0 0 0 .8-.4v-11a1.5 1.5 0 0 1 3 0v3.5h-1.5a.5.5 0 0 0 0 1h2a.5.5 0 0 0 .5-.5v-4a2.5 2.5 0 0 0 -2.5-2.5zm-2.5 2.5v10l-3.2-2.4a.5.5 0 0 0 -.6 0l-3.2 2.4v-10a1.5 1.5 0 0 1 1.5-1.5h6a2.51 2.51 0 0 0 -.5 1.5z" fill="#000000" data-original="#000000"></path></g></g></svg>